<svg width="41" height="32" viewBox="0 0 41 32" fill="none" xmlns="http://www.w3.org/2000/svg">
<path d="M32.9846 7.70354L33.7445 7.05355L33.7445 7.05355L32.9846 7.70354ZM32.9846 21.6296L33.7445 22.2796L33.7445 22.2796L32.9846 21.6296ZM31.101 23.1011L30.6383 22.2146L30.6383 22.2146L31.101 23.1011ZM23.8946 23.9981L23.8912 22.9981C23.3403 23 22.8946 23.4471 22.8946 23.9981H23.8946ZM23.8946 23.9999L24.7369 24.539C24.8399 24.3781 24.8946 24.191 24.8946 23.9999H23.8946ZM21.3234 28.0173L20.4811 27.4782L20.4811 27.4782L21.3234 28.0173ZM19.6388 28.0173L20.4811 27.4782L20.4811 27.4782L19.6388 28.0173ZM17.0676 23.9999H16.0676C16.0676 24.191 16.1223 24.3781 16.2253 24.539L17.0676 23.9999ZM17.0676 23.9981H18.0676C18.0676 23.4471 17.6219 23 17.071 22.9981L17.0676 23.9981ZM9.86116 23.1011L10.3239 22.2146L10.3239 22.2146L9.86116 23.1011ZM7.97759 21.6296L8.73753 20.9796L8.73753 20.9796L7.97759 21.6296ZM7.97759 7.70354L8.73753 8.35353L8.73753 8.35353L7.97759 7.70354ZM9.86116 6.23208L9.39842 5.34559L9.39842 5.34559L9.86116 6.23208ZM31.101 6.23208L30.6383 7.11858L30.6383 7.11858L31.101 6.23208ZM35.1352 14.6666C35.1352 12.8205 35.1371 11.3398 34.983 10.1559C34.8245 8.93927 34.4899 7.92496 33.7445 7.05355L32.2247 8.35353C32.6299 8.82732 32.8705 9.42192 32.9997 10.4142C33.1332 11.4392 33.1352 12.7675 33.1352 14.6666H35.1352ZM33.7445 22.2796C34.4899 21.4082 34.8245 20.3939 34.983 19.1772C35.1371 17.9934 35.1352 16.5127 35.1352 14.6666H33.1352C33.1352 16.5657 33.1332 17.8939 32.9997 18.919C32.8705 19.9113 32.6299 20.5059 32.2247 20.9796L33.7445 22.2796ZM31.5638 23.9876C32.4114 23.5451 33.1557 22.9681 33.7445 22.2796L32.2247 20.9796C31.8174 21.4558 31.2815 21.8788 30.6383 22.2146L31.5638 23.9876ZM23.898 24.9981C25.7355 24.9918 27.2101 24.9644 28.4221 24.8336C29.6423 24.7018 30.6594 24.4596 31.5638 23.9876L30.6383 22.2146C30.0384 22.5277 29.2936 22.7278 28.2074 22.8451C27.1129 22.9633 25.7364 22.9918 23.8912 22.9981L23.898 24.9981ZM24.8946 23.9999V23.9981H22.8946V23.9999H24.8946ZM22.1656 28.5564L24.7369 24.539L23.0524 23.4608L20.4811 27.4782L22.1656 28.5564ZM18.7966 28.5564C19.5833 29.7855 21.3789 29.7855 22.1656 28.5564L20.4811 27.4782H20.4811L18.7966 28.5564ZM16.2253 24.539L18.7966 28.5564L20.4811 27.4782L17.9098 23.4608L16.2253 24.539ZM16.0676 23.9981V23.9999H18.0676V23.9981H16.0676ZM9.39842 23.9876C10.3028 24.4596 11.3199 24.7018 12.5401 24.8336C13.7521 24.9644 15.2267 24.9918 17.0642 24.9981L17.071 22.9981C15.2258 22.9918 13.8493 22.9633 12.7548 22.8451C11.6686 22.7278 10.9238 22.5277 10.3239 22.2146L9.39842 23.9876ZM7.21765 22.2796C7.80653 22.9681 8.55077 23.5451 9.39843 23.9876L10.3239 22.2146C9.68067 21.8788 9.14483 21.4558 8.73753 20.9796L7.21765 22.2796ZM5.82703 14.6666C5.82703 16.5127 5.82506 17.9934 5.97922 19.1772C6.13765 20.3939 6.47232 21.4082 7.21765 22.2796L8.73753 20.9796C8.3323 20.5059 8.09168 19.9113 7.96247 18.919C7.82899 17.8939 7.82703 16.5657 7.82703 14.6666H5.82703ZM7.21765 7.05355C6.47232 7.92496 6.13765 8.93927 5.97922 10.1559C5.82506 11.3398 5.82703 12.8205 5.82703 14.6666H7.82703C7.82703 12.7675 7.82899 11.4392 7.96247 10.4142C8.09168 9.42192 8.3323 8.82732 8.73753 8.35353L7.21765 7.05355ZM9.39842 5.34559C8.55077 5.78805 7.80653 6.36506 7.21765 7.05355L8.73753 8.35353C9.14483 7.87733 9.68067 7.45434 10.3239 7.11858L9.39842 5.34559ZM18.7743 4.33325C16.3936 4.33325 14.5491 4.33251 13.0864 4.44875C11.6165 4.56557 10.4323 4.80592 9.39842 5.34559L10.3239 7.11858C11.012 6.75942 11.8873 6.55035 13.2449 6.44246C14.6098 6.33399 16.3609 6.33325 18.7743 6.33325V4.33325ZM22.1879 4.33325H18.7743V6.33325H22.1879V4.33325ZM31.5638 5.34559C30.5299 4.80592 29.3457 4.56557 27.8757 4.44875C26.4131 4.33251 24.5686 4.33325 22.1879 4.33325V6.33325C24.6012 6.33325 26.3524 6.33399 27.7173 6.44246C29.0749 6.55035 29.9502 6.75942 30.6383 7.11858L31.5638 5.34559ZM33.7445 7.05355C33.1557 6.36506 32.4114 5.78805 31.5638 5.34559L30.6383 7.11858C31.2815 7.45434 31.8174 7.87733 32.2247 8.35353L33.7445 7.05355Z" fill="#33363F"/>
<ellipse cx="27.3081" cy="14.6666" rx="1.70676" ry="1.33333" fill="#33363F" stroke="#33363F" stroke-linecap="round"/>
<ellipse cx="20.4811" cy="14.6666" rx="1.70676" ry="1.33333" fill="#33363F" stroke="#33363F" stroke-linecap="round"/>
<ellipse cx="13.654" cy="14.6666" rx="1.70676" ry="1.33333" fill="#33363F" stroke="#33363F" stroke-linecap="round"/>
</svg>
