<svg width="33" height="29" viewBox="0 0 33 29" fill="none" xmlns="http://www.w3.org/2000/svg">
<path d="M7.12704 18.4177L8.08888 18.6914L7.12704 18.4177L6.14208 21.88C6.13891 21.8912 6.13561 21.9027 6.1322 21.9147C6.09053 22.0604 6.0329 22.262 6.00952 22.4413C5.98266 22.6472 5.9612 23.1001 6.31953 23.481L7.04784 22.7957L6.31954 23.481C6.67787 23.8618 7.13122 23.868 7.3384 23.8537C7.51874 23.8413 7.72347 23.796 7.87149 23.7633C7.88363 23.7606 7.89538 23.758 7.90671 23.7555L12.0859 22.8374C12.1027 22.8337 12.12 22.8299 12.1377 22.8261C12.3333 22.7837 12.5806 22.7301 12.8119 22.613C13.0432 22.4959 13.2328 22.3283 13.3827 22.1959C13.3963 22.1838 13.4096 22.1721 13.4225 22.1607L23.7006 13.1285C23.7154 13.1155 23.7302 13.1025 23.745 13.0895C24.1047 12.7735 24.4491 12.4709 24.6946 12.1854C24.9688 11.8666 25.2351 11.4407 25.2351 10.875C25.2351 10.3093 24.9688 9.88342 24.6946 9.5646C24.4491 9.27907 24.1047 8.97648 23.745 8.66051C23.7302 8.64753 23.7154 8.63453 23.7006 8.62151L22.6053 7.65904C22.5929 7.64811 22.5805 7.63718 22.5681 7.62626C22.2862 7.37842 22.0086 7.1344 21.7508 6.96009C21.4582 6.76224 21.0894 6.58127 20.625 6.58127C20.1606 6.58127 19.7918 6.76224 19.4992 6.96009C19.2414 7.1344 18.9639 7.37842 18.682 7.62625C18.6695 7.63717 18.6571 7.6481 18.6447 7.65904L8.03221 16.9851C8.01745 16.9981 8.00224 17.0114 7.98665 17.025C7.81512 17.1748 7.59787 17.3644 7.44049 17.6135L8.28195 18.1452L7.44048 17.6135C7.2831 17.8626 7.20508 18.1403 7.14348 18.3595C7.13788 18.3794 7.13242 18.3989 7.12704 18.4177Z" stroke="white" stroke-width="2"/>
<path d="M17.1875 9.06217L21.3125 6.64551L25.4375 10.2705L22.6875 13.8955L17.1875 9.06217Z" fill="white"/>
</svg>
