<svg width="54" height="49" viewBox="0 0 54 49" fill="none" xmlns="http://www.w3.org/2000/svg">
<path fill-rule="evenodd" clip-rule="evenodd" d="M11.8675 20.6743C11.25 21.8926 11.25 23.2787 11.25 26.0507V34.7082C11.25 38.558 11.25 40.4829 12.568 41.6789C13.886 42.8749 16.0074 42.8749 20.25 42.8749H20.375V32.6667C20.375 30.8976 21.9237 29.625 23.625 29.625H30.375C32.0763 29.625 33.625 30.8976 33.625 32.6667V42.8749H33.75C37.9926 42.8749 40.114 42.8749 41.432 41.6789C42.75 40.4829 42.75 38.558 42.75 34.7082V26.0507C42.75 23.2787 42.75 21.8926 42.1325 20.6743C41.5149 19.4559 40.3552 18.5539 38.0357 16.7499L35.7857 14.9998C31.5932 11.739 29.497 10.1086 27 10.1086C24.503 10.1086 22.4068 11.739 18.2143 14.9999L15.9643 16.7498L15.9643 16.7499C13.6448 18.5539 12.4851 19.4559 11.8675 20.6743ZM31.625 42.8749V32.6667C31.625 32.1806 31.159 31.625 30.375 31.625H23.625C22.841 31.625 22.375 32.1806 22.375 32.6667V42.8749H31.625Z" fill="#222222"/>
</svg>
