<svg width="28" height="28" viewBox="0 0 28 28" fill="none" xmlns="http://www.w3.org/2000/svg">
<path d="M11.6666 17.5L11.6666 14" stroke="#E40606" stroke-width="2" stroke-linecap="round"/>
<path d="M16.3334 17.5L16.3334 14" stroke="#E40606" stroke-width="2" stroke-linecap="round"/>
<path d="M3.5 8.1665H24.5V8.1665C23.0955 8.1665 22.3933 8.1665 21.8889 8.50356C21.6705 8.64948 21.483 8.83698 21.3371 9.05536C21 9.55981 21 10.262 21 11.6665V19.3332C21 21.2188 21 22.1616 20.4142 22.7474C19.8284 23.3332 18.8856 23.3332 17 23.3332H11C9.11438 23.3332 8.17157 23.3332 7.58579 22.7474C7 22.1616 7 21.2188 7 19.3332V11.6665C7 10.262 7 9.55981 6.66294 9.05536C6.51702 8.83698 6.32952 8.64948 6.11114 8.50356C5.60669 8.1665 4.90446 8.1665 3.5 8.1665V8.1665Z" stroke="#E40606" stroke-width="2" stroke-linecap="round"/>
<path d="M11.7462 3.93236C11.8792 3.80832 12.1721 3.69872 12.5796 3.62054C12.9871 3.54237 13.4864 3.5 14 3.5C14.5137 3.5 15.013 3.54237 15.4205 3.62054C15.828 3.69872 16.1209 3.80832 16.2539 3.93236" stroke="#E40606" stroke-width="2" stroke-linecap="round"/>
</svg>
