<svg width="31" height="29" viewBox="0 0 31 29" fill="none" xmlns="http://www.w3.org/2000/svg">
<path d="M3.95361 11.625C3.95361 7.85376 3.95361 5.96815 5.12519 4.79657C6.29676 3.625 8.18238 3.625 11.9536 3.625H18.9949C22.7661 3.625 24.6517 3.625 25.8233 4.79657C26.9949 5.96815 26.9949 7.85376 26.9949 11.625V17.375C26.9949 21.1462 26.9949 23.0319 25.8233 24.2034C24.6517 25.375 22.7661 25.375 18.9949 25.375H11.9536C8.18237 25.375 6.29676 25.375 5.12519 24.2034C3.95361 23.0319 3.95361 21.1462 3.95361 17.375V11.625Z" stroke="#33363F" stroke-width="2"/>
<path d="M15.4742 9.66675L15.4742 19.3334" stroke="#33363F" stroke-width="2" stroke-linecap="square" stroke-linejoin="round"/>
<path d="M20.5945 14.5L10.3539 14.5" stroke="#33363F" stroke-width="2" stroke-linecap="square" stroke-linejoin="round"/>
</svg>
