<svg width="32" height="34" viewBox="0 0 32 34" fill="none" xmlns="http://www.w3.org/2000/svg">
<path d="M14.5081 5.81984C15.643 2.77502 16.2104 1.25261 17.1323 1.04161C17.3747 0.98613 17.6253 0.98613 17.8677 1.04161C18.7896 1.25261 19.357 2.77502 20.4919 5.81984C21.1372 7.55138 21.4599 8.41714 22.0637 9.006C22.2331 9.17117 22.4169 9.31827 22.6127 9.44524C23.3106 9.89792 24.1817 9.98189 25.9241 10.1498C28.8737 10.4341 30.3484 10.5763 30.7988 11.4812C30.8921 11.6686 30.9555 11.8716 30.9864 12.0816C31.1357 13.0955 30.0515 14.157 27.8832 16.2801L27.2811 16.8697C26.2673 17.8622 25.7604 18.3585 25.4673 18.9779C25.2914 19.3494 25.1735 19.7496 25.1182 20.1623C25.0261 20.8503 25.1745 21.5702 25.4714 23.0102L25.5775 23.5246C26.1098 26.1069 26.376 27.3981 26.0437 28.0327C25.7453 28.6028 25.1955 28.9677 24.5882 28.999C23.9121 29.0337 22.9594 28.1983 21.0541 26.5274C19.7988 25.4266 19.1711 24.8761 18.4744 24.6611C17.8376 24.4646 17.1624 24.4646 16.5256 24.6611C15.8289 24.8761 15.2012 25.4266 13.9459 26.5274C12.0406 28.1983 11.0879 29.0337 10.4118 28.999C9.80452 28.9677 9.25475 28.6028 8.95628 28.0327C8.624 27.3981 8.89018 26.1069 9.42255 23.5246L9.52861 23.0102C9.82547 21.5702 9.9739 20.8503 9.88179 20.1623C9.82654 19.7496 9.70862 19.3494 9.53275 18.9779C9.23956 18.3585 8.73269 17.8622 7.71895 16.8697L7.11681 16.2801C4.94846 14.157 3.86428 13.0955 4.01359 12.0816C4.04451 11.8716 4.10793 11.6686 4.2012 11.4812C4.65156 10.5762 6.12633 10.4341 9.07587 10.1498C10.8183 9.98189 11.6894 9.89792 12.3873 9.44524C12.5831 9.31827 12.7669 9.17117 12.9363 9.006C13.5401 8.41714 13.8628 7.55138 14.5081 5.81984Z" fill="#F58502" stroke="#222222" stroke-width="2"/>
</svg>
