<svg width="32" height="31" viewBox="0 0 32 31" fill="none" xmlns="http://www.w3.org/2000/svg">
<path fill-rule="evenodd" clip-rule="evenodd" d="M1 15.5C1 7.49187 7.49187 1 15.5 1H16.5C24.5081 1 31 7.49187 31 15.5C31 20.1203 28.839 24.236 25.4726 26.8912C24.8362 25.0665 23.6535 23.4658 22.0746 22.2947C20.3282 20.9993 18.1929 20.3 16 20.3C13.8071 20.3 11.6718 20.9993 9.9254 22.2947C8.34647 23.4658 7.16377 25.0665 6.52742 26.8912C3.16101 24.236 1 20.1203 1 15.5ZM23.7297 28.0154C23.7342 28.0316 23.739 28.0476 23.7443 28.0635C21.6128 29.2952 19.1387 30 16.5 30H15.5C12.8613 30 10.3872 29.2952 8.25572 28.0635C8.26095 28.0476 8.26583 28.0316 8.27033 28.0154C8.72236 26.3846 9.72026 24.937 11.1169 23.901C12.5141 22.8646 14.2305 22.3 16 22.3C17.7695 22.3 19.4859 22.8646 20.8831 23.901C22.2797 24.937 23.2776 26.3846 23.7297 28.0154ZM12.5 11.15C12.5 9.33153 14.0348 7.8 16 7.8C17.9652 7.8 19.5 9.33153 19.5 11.15C19.5 12.9685 17.9652 14.5 16 14.5C14.0348 14.5 12.5 12.9685 12.5 11.15ZM16 5.8C12.9947 5.8 10.5 8.16359 10.5 11.15C10.5 14.1364 12.9947 16.5 16 16.5C19.0053 16.5 21.5 14.1364 21.5 11.15C21.5 8.16359 19.0053 5.8 16 5.8Z" fill="white"/>
<path d="M25.4726 26.8912L25.0005 27.0559L25.2315 27.7182L25.7822 27.2838L25.4726 26.8912ZM22.0746 22.2947L21.7767 22.6962L22.0746 22.2947ZM9.9254 22.2947L10.2233 22.6962L9.9254 22.2947ZM6.52742 26.8912L6.21777 27.2838L6.76854 27.7182L6.99954 27.0559L6.52742 26.8912ZM23.7443 28.0635L23.9944 28.4964L24.3469 28.2927L24.2189 27.9063L23.7443 28.0635ZM23.7297 28.0154L23.2478 28.149L23.2478 28.149L23.7297 28.0154ZM8.25572 28.0635L7.78107 27.9063L7.65309 28.2927L8.00555 28.4964L8.25572 28.0635ZM8.27033 28.0154L7.7885 27.8818L7.7885 27.8818L8.27033 28.0154ZM11.1169 23.901L11.4148 24.3026L11.1169 23.901ZM20.8831 23.901L21.181 23.4994H21.181L20.8831 23.901ZM15.5 0.5C7.21573 0.5 0.5 7.21573 0.5 15.5H1.5C1.5 7.76801 7.76801 1.5 15.5 1.5V0.5ZM16.5 0.5H15.5V1.5H16.5V0.5ZM31.5 15.5C31.5 7.21573 24.7843 0.5 16.5 0.5V1.5C24.232 1.5 30.5 7.76801 30.5 15.5H31.5ZM25.7822 27.2838C29.2637 24.5378 31.5 20.2799 31.5 15.5H30.5C30.5 19.9608 28.4143 23.9341 25.1629 26.4987L25.7822 27.2838ZM21.7767 22.6962C23.2765 23.8087 24.3977 25.3274 25.0005 27.0559L25.9447 26.7266C25.2748 24.8056 24.0306 23.1229 22.3725 21.8931L21.7767 22.6962ZM16 20.8C18.0871 20.8 20.1176 21.4656 21.7767 22.6962L22.3725 21.8931C20.5388 20.5329 18.2987 19.8 16 19.8V20.8ZM10.2233 22.6962C11.8824 21.4656 13.9129 20.8 16 20.8V19.8C13.7013 19.8 11.4612 20.5329 9.62752 21.8931L10.2233 22.6962ZM6.99954 27.0559C7.60231 25.3274 8.7235 23.8087 10.2233 22.6962L9.62752 21.8931C7.96945 23.1229 6.72522 24.8056 6.05531 26.7266L6.99954 27.0559ZM0.5 15.5C0.5 20.2799 2.73632 24.5378 6.21777 27.2838L6.83707 26.4987C3.58569 23.9341 1.5 19.9608 1.5 15.5H0.5ZM24.2189 27.9063C24.2163 27.8982 24.2138 27.8901 24.2115 27.8818L23.2478 28.149C23.2546 28.1732 23.2618 28.1971 23.2696 28.2207L24.2189 27.9063ZM16.5 30.5C19.2289 30.5 21.789 29.7708 23.9944 28.4964L23.4941 27.6305C21.4367 28.8195 19.0486 29.5 16.5 29.5V30.5ZM15.5 30.5H16.5V29.5H15.5V30.5ZM8.00555 28.4964C10.211 29.7708 12.7711 30.5 15.5 30.5V29.5C12.9514 29.5 10.5633 28.8195 8.50588 27.6305L8.00555 28.4964ZM7.7885 27.8818C7.78622 27.8901 7.78374 27.8982 7.78107 27.9063L8.73036 28.2207C8.73817 28.1971 8.74544 28.1732 8.75217 28.1489L7.7885 27.8818ZM10.819 23.4994C9.33479 24.6003 8.2709 26.1415 7.7885 27.8818L8.75216 28.1489C9.17382 26.6278 10.1057 25.2736 11.4148 24.3026L10.819 23.4994ZM16 21.8C14.1246 21.8 12.3035 22.3983 10.819 23.4994L11.4148 24.3026C12.7247 23.331 14.3363 22.8 16 22.8V21.8ZM21.181 23.4994C19.6965 22.3983 17.8754 21.8 16 21.8V22.8C17.6637 22.8 19.2753 23.331 20.5852 24.3026L21.181 23.4994ZM24.2115 27.8818C23.7291 26.1415 22.6652 24.6003 21.181 23.4994L20.5852 24.3026C21.8943 25.2736 22.8262 26.6278 23.2478 28.149L24.2115 27.8818ZM16 7.3C13.7733 7.3 12 9.04093 12 11.15H13C13 9.62213 14.2962 8.3 16 8.3V7.3ZM20 11.15C20 9.04093 18.2267 7.3 16 7.3V8.3C17.7038 8.3 19 9.62213 19 11.15H20ZM16 15C18.2267 15 20 13.2591 20 11.15H19C19 12.6779 17.7038 14 16 14V15ZM12 11.15C12 13.2591 13.7733 15 16 15V14C14.2962 14 13 12.6779 13 11.15H12ZM11 11.15C11 8.45645 13.2538 6.3 16 6.3V5.3C12.7355 5.3 10 7.87073 10 11.15H11ZM16 16C13.2538 16 11 13.8435 11 11.15H10C10 14.4293 12.7355 17 16 17V16ZM21 11.15C21 13.8435 18.7462 16 16 16V17C19.2645 17 22 14.4293 22 11.15H21ZM16 6.3C18.7462 6.3 21 8.45645 21 11.15H22C22 7.87073 19.2645 5.3 16 5.3V6.3Z" fill="black"/>
</svg>
